<svg width="1508" height="226" xmlns="http://www.w3.org/2000/svg"><path d="M39.01 222l-.001-71.264h40.37c15.975 0 29.469-2.896 40.48-8.687l.61-.324c11.122-6.008 19.532-14.263 25.23-24.768 5.699-10.504 8.548-22.519 8.548-36.044 0-13.387-2.832-25.35-8.496-35.89-5.664-10.538-14.006-18.828-25.025-24.87-11.019-6.041-24.63-9.062-40.833-9.062H.803V222h38.206zm-.001-178.984h35.014c9.544 0 17.353 1.596 23.43 4.788 6.075 3.193 10.572 7.638 13.49 13.337 2.918 5.698 4.377 12.289 4.377 19.772 0 7.484-1.46 14.109-4.377 19.876-2.918 5.767-7.398 10.298-13.44 13.594-6.041 3.295-13.8 4.943-23.274 4.943H39.01v-76.31zm199.852 182.073c15.447 0 28.835-3.398 40.163-10.195 11.328-6.797 20.099-16.305 26.312-28.526 6.214-12.22 9.32-26.501 9.32-42.841s-3.106-30.655-9.32-42.944c-6.213-12.29-14.984-21.832-26.312-28.63-11.328-6.796-24.716-10.194-40.163-10.194-15.448 0-28.835 3.398-40.164 10.195-11.328 6.797-20.098 16.34-26.312 28.63-6.213 12.288-9.32 26.603-9.32 42.943 0 16.34 3.107 30.62 9.32 42.84 6.214 12.222 14.984 21.73 26.312 28.527 11.329 6.797 24.716 10.195 40.164 10.195zm.206-29.865c-8.582 0-15.705-2.317-21.37-6.95-5.663-4.635-9.886-10.866-12.666-18.692-2.78-7.827-4.17-16.546-4.17-26.158 0-9.68 1.39-18.451 4.17-26.312 2.78-7.861 7.003-14.126 12.667-18.795 5.664-4.668 12.787-7.002 21.369-7.002 8.376 0 15.379 2.334 21.008 7.002 5.63 4.669 9.835 10.934 12.616 18.795 2.78 7.86 4.17 16.632 4.17 26.312 0 9.612-1.39 18.331-4.17 26.158-2.78 7.826-6.986 14.057-12.616 18.691-5.63 4.634-12.632 6.951-21.008 6.951zM351.28 41.368c5.904 0 10.968-1.974 15.19-5.922 4.222-3.947 6.333-8.702 6.333-14.263 0-5.63-2.11-10.418-6.333-14.366-4.222-3.948-9.286-5.921-15.19-5.921s-10.985 1.973-15.242 5.921c-4.256 3.948-6.384 8.737-6.384 14.366 0 5.561 2.11 10.316 6.333 14.263 4.222 3.948 9.32 5.922 15.293 5.922zM369.817 222V63.818h-37.28V222h37.28zm61.916 0v-96.186c0-6.522 1.305-12.238 3.914-17.147 2.609-4.909 6.11-8.719 10.504-11.43 4.394-2.713 9.268-4.069 14.624-4.069 7.895 0 14.297 2.438 19.206 7.312 4.909 4.875 7.363 11.397 7.363 19.567V222h36.56v-98.658c0-8.925 2.522-16.185 7.568-21.78 5.047-5.596 12.067-8.394 21.06-8.394 7.552 0 13.937 2.283 19.155 6.849 5.218 4.565 7.827 11.757 7.827 21.575V222h37.383V115.825c0-17.645-4.6-31.067-13.8-40.267-9.2-9.2-21.077-13.8-35.632-13.8-11.466 0-21.37 2.627-29.71 7.879-8.342 5.252-14.264 12.272-17.765 21.06h-1.648c-3.02-8.925-8.221-15.98-15.602-21.163-7.38-5.184-16.426-7.775-27.136-7.775-10.573 0-19.67 2.557-27.29 7.672-7.621 5.115-13.08 12.203-16.375 21.266h-1.853V63.818h-35.632V222h37.28zm254.948 3.192c8.239 0 15.43-1.15 21.575-3.45 6.145-2.3 11.26-5.355 15.345-9.165 4.085-3.81 7.26-7.912 9.525-12.306h1.236V222H770.2V116.134c0-10.505-1.905-19.258-5.715-26.261-3.81-7.003-8.84-12.547-15.087-16.632-6.248-4.085-13.148-7.02-20.7-8.805-7.552-1.785-15.138-2.677-22.759-2.677-11.054 0-21.146 1.63-30.277 4.891s-16.855 8.136-23.171 14.624c-6.316 6.488-10.848 14.538-13.594 24.15l34.808 4.942c1.854-5.423 5.441-10.126 10.762-14.108 5.32-3.982 12.547-5.973 21.678-5.973 8.65 0 15.276 2.128 19.876 6.385 4.6 4.256 6.9 10.264 6.9 18.022v.618c0 3.57-1.322 6.196-3.965 7.878-2.644 1.682-6.849 2.918-12.616 3.707-5.767.79-13.285 1.665-22.553 2.626-7.69.824-15.121 2.146-22.296 3.965-7.174 1.82-13.61 4.48-19.31 7.981-5.698 3.502-10.194 8.17-13.49 14.006-3.295 5.836-4.943 13.216-4.943 22.141 0 10.367 2.317 19.087 6.951 26.158 4.635 7.072 10.95 12.41 18.95 16.014 7.997 3.604 17.008 5.406 27.032 5.406zm9.68-27.393c-7.757 0-14.142-1.75-19.154-5.252-5.012-3.502-7.518-8.685-7.518-15.55 0-4.806 1.27-8.737 3.81-11.792 2.54-3.055 6.008-5.441 10.402-7.157 4.394-1.717 9.371-2.953 14.932-3.708 2.119-.294 4.565-.639 7.34-1.034l1.414-.202c3.364-.48 6.762-1.03 10.195-1.647 3.433-.618 6.54-1.34 9.32-2.163 2.78-.824 4.754-1.716 5.921-2.678v18.64c0 5.836-1.493 11.226-4.48 16.169-2.986 4.943-7.225 8.908-12.718 11.894-5.492 2.987-11.98 4.48-19.463 4.48zM831.479 222v-92.685c0-7.62 1.425-14.108 4.274-19.463 2.85-5.356 6.797-9.458 11.843-12.307 5.046-2.85 10.83-4.274 17.353-4.274 9.611 0 17.146 2.987 22.604 8.96 5.458 5.973 8.187 14.246 8.187 24.819V222h37.28V121.283c.069-12.633-2.145-23.377-6.642-32.234-4.497-8.857-10.813-15.62-18.949-20.288-8.136-4.668-17.662-7.002-28.578-7.002-11.808 0-21.712 2.608-29.71 7.826-7.999 5.218-13.817 12.255-17.456 21.112h-1.854V63.818h-35.632V222h37.28zm184.59 2.78c9.062 0 16.58-1.51 22.553-4.53 5.973-3.022 10.78-6.677 14.418-10.968 3.639-4.291 6.42-8.36 8.341-12.204h2.266V222h36.662V11.09h-37.383v78.886h-1.545c-1.922-3.845-4.634-7.947-8.135-12.307-3.502-4.36-8.239-8.1-14.212-11.225-5.973-3.124-13.594-4.685-22.862-4.685-12.152 0-23.171 3.106-33.058 9.32-9.886 6.213-17.73 15.378-23.531 27.496-5.802 12.118-8.702 26.964-8.702 44.54 0 17.37 2.849 32.13 8.547 44.283 5.699 12.152 13.457 21.42 23.274 27.805 9.818 6.385 20.94 9.578 33.367 9.578zm10.401-30.585c-8.17 0-15.052-2.215-20.648-6.643-5.595-4.428-9.818-10.504-12.667-18.228-2.849-7.724-4.274-16.529-4.274-26.415 0-9.818 1.408-18.537 4.223-26.158 2.815-7.62 7.003-13.593 12.564-17.919 5.56-4.325 12.495-6.488 20.802-6.488 8.033 0 14.813 2.094 20.34 6.282 5.526 4.188 9.714 10.058 12.563 17.61 2.85 7.553 4.274 16.443 4.274 26.673 0 10.23-1.442 19.19-4.325 26.879-2.884 7.689-7.106 13.68-12.667 17.97-5.561 4.291-12.29 6.437-20.185 6.437zM1163.831 222v-92.994c0-6.728 1.544-12.667 4.634-17.816 3.09-5.149 7.329-9.182 12.718-12.1 5.39-2.918 11.483-4.377 18.28-4.377 3.158 0 6.436.223 9.835.67 3.398.446 5.887.943 7.466 1.493V62.582c-1.716-.343-3.862-.6-6.436-.772a105.486 105.486 0 00-6.952-.257c-9.062 0-17.112 2.488-24.15 7.466-7.036 4.977-11.997 12.032-14.88 21.163h-1.648V63.818h-36.147V222h37.28zm127.537 3.09c12.29 0 23.205-1.871 32.749-5.613 9.543-3.742 17.387-9.028 23.531-15.86 6.145-6.83 10.316-14.846 12.513-24.046l-34.809-3.913c-1.647 4.462-4.085 8.204-7.311 11.225-3.227 3.02-7.038 5.303-11.432 6.848-4.393 1.545-9.302 2.317-14.726 2.317-8.101 0-15.173-1.733-21.215-5.2-6.041-3.467-10.744-8.48-14.108-15.036-3.172-6.182-4.849-13.539-5.03-22.07l-.011-.637h110.186v-11.432c0-13.868-1.922-25.831-5.767-35.89-3.844-10.057-9.114-18.347-15.808-24.87-6.693-6.522-14.383-11.345-23.068-14.469-8.685-3.124-17.902-4.685-27.65-4.685-15.105 0-28.252 3.45-39.443 10.35-11.191 6.9-19.893 16.51-26.106 28.835-6.214 12.323-9.32 26.62-9.32 42.892 0 16.546 3.09 30.912 9.268 43.098 6.18 12.187 15.019 21.592 26.518 28.218 11.5 6.625 25.18 9.937 41.039 9.937zm-39.744-97.646c.42-5.998 2.014-11.57 4.781-16.717 3.193-5.939 7.673-10.745 13.44-14.418 5.767-3.673 12.46-5.51 20.081-5.51 7.14 0 13.405 1.614 18.795 4.84 5.389 3.228 9.594 7.639 12.615 13.234 3.02 5.596 4.566 11.963 4.634 19.104h-74.379l.033-.533zm188.804 97.645c13.182 0 24.854-2.128 35.015-6.384 10.16-4.257 18.107-10.179 23.84-17.765 5.733-7.586 8.634-16.357 8.702-26.312-.068-11.328-3.759-20.494-11.07-27.497-7.312-7.002-18.452-12.117-33.418-15.344l-26.982-5.767c-8.033-1.854-13.783-4.222-17.25-7.106-3.467-2.883-5.166-6.625-5.097-11.225-.069-5.355 2.523-9.715 7.775-13.079 5.252-3.364 11.757-5.046 19.515-5.046 5.767 0 10.642.927 14.624 2.78 3.982 1.854 7.157 4.291 9.526 7.312 2.368 3.021 4.033 6.248 4.994 9.68l33.985-3.707c-2.54-13.456-9.149-24.132-19.824-32.027-10.676-7.896-25.283-11.843-43.82-11.843-12.632 0-23.772 1.973-33.418 5.921-9.646 3.948-17.163 9.509-22.553 16.683-5.39 7.175-8.05 15.637-7.981 25.386v.616c.061 11.257 3.666 20.578 10.813 27.961 7.278 7.518 18.503 12.856 33.676 16.014l26.981 5.664c7.278 1.58 12.65 3.845 16.117 6.797 3.467 2.952 5.2 6.694 5.2 11.225 0 5.355-2.694 9.852-8.084 13.491-5.39 3.639-12.512 5.458-21.369 5.458-8.581 0-15.55-1.82-20.905-5.458-5.355-3.639-8.857-9.028-10.504-16.168l-36.353 3.501c2.265 14.555 9.302 25.9 21.111 34.036 11.809 8.136 27.394 12.203 46.754 12.203z"/></svg>